<?xml version="1.0" encoding="UTF-8" standalone="no"?>
<svg
   xmlns:dc="http://purl.org/dc/elements/1.1/"
   xmlns:cc="http://creativecommons.org/ns#"
   xmlns:rdf="http://www.w3.org/1999/02/22-rdf-syntax-ns#"
   xmlns:svg="http://www.w3.org/2000/svg"
   xmlns="http://www.w3.org/2000/svg"
   xmlns:sodipodi="http://sodipodi.sourceforge.net/DTD/sodipodi-0.dtd"
   xmlns:inkscape="http://www.inkscape.org/namespaces/inkscape"
   version="1.1"
   x="0px"
   y="0px"
   viewBox="0 0 100 125"
   xml:space="preserve"
   id="svg18"
   sodipodi:docname="cloudy-day.svg"
   inkscape:version="0.92.2 5c3e80d, 2017-08-06"><metadata
     id="metadata24"><rdf:RDF><cc:Work
         rdf:about=""><dc:format>image/svg+xml</dc:format><dc:type
           rdf:resource="http://purl.org/dc/dcmitype/StillImage" /></cc:Work></rdf:RDF></metadata><defs
     id="defs22" /><sodipodi:namedview
     pagecolor="#ffffff"
     bordercolor="#666666"
     borderopacity="1"
     objecttolerance="10"
     gridtolerance="10"
     guidetolerance="10"
     inkscape:pageopacity="0"
     inkscape:pageshadow="2"
     inkscape:window-width="694"
     inkscape:window-height="480"
     id="namedview20"
     showgrid="false"
     inkscape:zoom="1.888"
     inkscape:cx="50"
     inkscape:cy="62.5"
     inkscape:window-x="0"
     inkscape:window-y="0"
     inkscape:window-maximized="0"
     inkscape:current-layer="svg18" /><path
     fill="#000000"
     d="M59.3,34.9c-7.9,0-14.6,5.6-16.3,13c-2.6-1.3-5.6-2-8.6-2c-9,0-16.6,6-18.8,14.5C8.8,60.1,3.2,65.6,3.2,72.4  c0,6.7,5.4,12.1,12.1,12.1c3.1,0,6.1-1.2,8.3-3.3c3.2,2.1,7,3.3,10.8,3.3c3.8,0,7.6-1.2,10.8-3.3c2.5,2.1,5.8,3.3,9.1,3.3  c7.8,0,14.2-6.4,14.2-14.2c0-1.5-0.2-2.9-0.7-4.3c4.9-2.9,8.3-8.3,8.3-14.4C76.1,42.4,68.6,34.9,59.3,34.9z M54.2,80.6  c-2.8,0-5.6-1.2-7.5-3.2c-0.4-0.4-0.9-0.6-1.4-0.6c-0.4,0-0.9,0.1-1.2,0.4c-2.8,2.2-6.1,3.4-9.7,3.4c-3.6,0-7-1.2-9.8-3.5  c-0.4-0.3-0.9-0.5-1.5-0.4c-0.5,0.1-1,0.3-1.3,0.8c-1.6,2-3.9,3.2-6.5,3.2c-4.5,0-8.2-3.7-8.2-8.2c0-4.5,3.7-8.2,8.2-8.2  c0.5,0,1,0.1,1.5,0.1c0.5,0.1,1.1,0,1.5-0.3c0.4-0.3,0.7-0.8,0.8-1.3c1.2-7.5,7.6-13,15.2-13c3,0,5.8,0.8,8.2,2.4  c0.7,0.5,1.4,1,2.1,1.6c1.7,1.5,3.1,3.5,4,5.7c0.3,0.6,0.8,1.1,1.5,1.2c0.3,0.1,0.6,0.1,1,0c1-0.3,2.1-0.5,3.1-0.5  c3.3,0,6.3,1.6,8.2,4c0.4,0.5,0.8,1.1,1.1,1.7c0.3,0.6,0.5,1.2,0.7,1.8c0.2,0.9,0.4,1.8,0.4,2.7C64.5,76,59.9,80.6,54.2,80.6z   M66.1,62.5c-2.5-3.9-6.9-6.4-11.9-6.4c-0.9,0-1.8,0.1-2.6,0.2c-1.2-2.4-3-4.5-5-6.2c0.7-6.4,6.2-11.3,12.7-11.3  c7.1,0,12.8,5.8,12.8,12.8C72.2,56.2,69.7,60.2,66.1,62.5z"
     id="path2"
     style="fill:#ffffff" /><path
     fill="#000000"
     d="M59.3,23.1c1.1,0,2-0.9,2-2v-5c0-1.1-0.9-2-2-2c-1.1,0-2,0.9-2,2v5C57.4,22.2,58.3,23.1,59.3,23.1z"
     id="path4"
     style="fill:#ffffff" /><path
     fill="#000000"
     d="M83.1,25.1l-3.5,3.5c-0.8,0.8-0.8,2,0,2.8c0.4,0.4,0.9,0.6,1.4,0.6c0.5,0,1-0.2,1.4-0.6l3.5-3.5  c0.8-0.8,0.8-2,0-2.8C85.1,24.3,83.8,24.3,83.1,25.1z"
     id="path6"
     style="fill:#ffffff" /><path
     fill="#000000"
     d="M94.9,49.7h-5c-1.1,0-2,0.9-2,2s0.9,2,2,2h5c1.1,0,2-0.9,2-2S96,49.7,94.9,49.7z"
     id="path8"
     style="fill:#ffffff" /><path
     fill="#000000"
     d="M82.3,71.8c-0.8-0.8-2-0.8-2.8,0c-0.8,0.8-0.8,2,0,2.8l3.5,3.5c0.4,0.4,0.9,0.6,1.4,0.6s1-0.2,1.4-0.6  c0.8-0.8,0.8-2,0-2.8L82.3,71.8z"
     id="path10"
     style="fill:#ffffff" /><path
     fill="#000000"
     d="M36.4,31.4c0.4,0.4,0.9,0.6,1.4,0.6s1-0.2,1.4-0.6c0.8-0.8,0.8-2,0-2.8l-3.5-3.5c-0.8-0.8-2-0.8-2.8,0  c-0.8,0.8-0.8,2,0,2.8L36.4,31.4z"
     id="path12"
     style="fill:#ffffff" /></svg>