<?xml version="1.0" encoding="UTF-8" standalone="no"?>
<svg
   xmlns:dc="http://purl.org/dc/elements/1.1/"
   xmlns:cc="http://creativecommons.org/ns#"
   xmlns:rdf="http://www.w3.org/1999/02/22-rdf-syntax-ns#"
   xmlns:svg="http://www.w3.org/2000/svg"
   xmlns="http://www.w3.org/2000/svg"
   xmlns:sodipodi="http://sodipodi.sourceforge.net/DTD/sodipodi-0.dtd"
   xmlns:inkscape="http://www.inkscape.org/namespaces/inkscape"
   version="1.1"
   x="0px"
   y="0px"
   viewBox="0 0 100 125"
   enable-background="new 0 0 100 100"
   xml:space="preserve"
   id="svg20"
   sodipodi:docname="rainy.svg"
   inkscape:version="0.92.2 5c3e80d, 2017-08-06"><metadata
     id="metadata26"><rdf:RDF><cc:Work
         rdf:about=""><dc:format>image/svg+xml</dc:format><dc:type
           rdf:resource="http://purl.org/dc/dcmitype/StillImage" /></cc:Work></rdf:RDF></metadata><defs
     id="defs24" /><sodipodi:namedview
     pagecolor="#ffffff"
     bordercolor="#666666"
     borderopacity="1"
     objecttolerance="10"
     gridtolerance="10"
     guidetolerance="10"
     inkscape:pageopacity="0"
     inkscape:pageshadow="2"
     inkscape:window-width="694"
     inkscape:window-height="480"
     id="namedview22"
     showgrid="false"
     inkscape:zoom="3"
     inkscape:cx="50"
     inkscape:cy="91.539548"
     inkscape:window-x="328"
     inkscape:window-y="3"
     inkscape:window-maximized="0"
     inkscape:current-layer="svg20" /><path
     fill="none"
     stroke="#000000"
     stroke-width="2"
     stroke-linecap="round"
     stroke-linejoin="round"
     stroke-miterlimit="10"
     d="  M64.514,36.048c-0.806,0-1.583,0.113-2.329,0.305c-1.06-4.74-5.285-8.284-10.344-8.284c-5.234,0-9.571,3.794-10.439,8.779  c-1.152-0.511-2.425-0.801-3.767-0.801c-5.142,0-9.31,4.168-9.31,9.31s4.168,9.31,9.31,9.31c4.265,0,22.85,0,26.879,0  c5.142,0,9.31-4.168,9.31-9.31S69.656,36.048,64.514,36.048z"
     id="path2"
     style="fill:#ffffff" /><line
     fill="none"
     stroke="#000000"
     stroke-width="2"
     stroke-linecap="round"
     stroke-linejoin="round"
     stroke-miterlimit="10"
     x1="42.619"
     y1="54.669"
     x2="42.619"
     y2="60.112"
     id="line4"
     style="fill:#ffffff" /><line
     fill="none"
     stroke="#000000"
     stroke-width="2"
     stroke-linecap="round"
     stroke-linejoin="round"
     stroke-miterlimit="10"
     x1="42.619"
     y1="64.862"
     x2="42.619"
     y2="68.737"
     id="line6"
     style="fill:#ffffff" /><line
     fill="none"
     stroke="#000000"
     stroke-width="2"
     stroke-linecap="round"
     stroke-linejoin="round"
     stroke-miterlimit="10"
     x1="51.075"
     y1="59.612"
     x2="51.075"
     y2="65.487"
     id="line8"
     style="fill:#ffffff" /><line
     fill="none"
     stroke="#000000"
     stroke-width="2"
     stroke-linecap="round"
     stroke-linejoin="round"
     stroke-miterlimit="10"
     x1="51.075"
     y1="70.112"
     x2="51.075"
     y2="73.737"
     id="line10"
     style="fill:#ffffff" /><line
     fill="none"
     stroke="#000000"
     stroke-width="2"
     stroke-linecap="round"
     stroke-linejoin="round"
     stroke-miterlimit="10"
     x1="59.369"
     y1="71.112"
     x2="59.369"
     y2="66.8"
     id="line12"
     style="fill:#ffffff" /><line
     fill="none"
     stroke="#000000"
     stroke-width="2"
     stroke-linecap="round"
     stroke-linejoin="round"
     stroke-miterlimit="10"
     x1="59.369"
     y1="58.362"
     x2="59.369"
     y2="54.669"
     id="line14"
     style="fill:#ffffff" /><path
     style="fill:#ffffff;stroke-width:0.33333334"
     d=""
     id="path28"
     inkscape:connector-curvature="0" /><path
     style="fill:#ffffff;stroke-width:0.33333334"
     d="m 41.967079,60.716419 c -0.12856,-0.12856 -0.233746,-1.31369 -0.233746,-2.633624 v -2.399878 l -3.25,-0.157536 c -3.740089,-0.181291 -5.57305,-0.837841 -7.697541,-2.75719 -4.207136,-3.800895 -4.306564,-10.552007 -0.214811,-14.585565 2.101841,-2.071946 3.87528,-2.751861 7.248465,-2.77897 l 2.919446,-0.02346 0.843826,-1.693338 c 1.024576,-2.056055 3.614246,-4.5496 5.744873,-5.531628 2.297975,-1.05916 6.935516,-1.028758 9.144527,0.05995 2.290261,1.128752 4.364175,3.094699 5.447589,5.163995 l 0.94961,1.813733 2.18201,0.126464 c 8.871163,0.514151 12.846486,11.531044 6.296213,17.448822 -2.165883,1.956747 -3.945467,2.580923 -7.864207,2.758316 l -3.416666,0.154666 v 1.6033 c 0,0.881816 -0.156571,1.700067 -0.347935,1.818337 C 59.040708,59.521851 58.4,58.525934 58.4,57.05297 v -1.459185 h -7.485979 -7.485978 l -0.09736,2.579719 c -0.07595,2.012393 -0.210888,2.601375 -0.613609,2.678191 -0.28394,0.05416 -0.62144,-0.0067 -0.75,-0.135276 z M 68.14911,52.981148 c 5.281247,-2.600852 6.41687,-9.54626 2.230157,-13.639546 C 68.6146,37.616312 67.21266,37.095999 64.272573,37.07518 l -2.62743,-0.01861 -0.62419,-1.673287 c -1.817954,-4.873433 -7.03868,-7.447965 -12.112306,-5.973022 -2.71323,0.788757 -5.449224,3.516781 -6.316314,6.297915 -0.570986,1.831399 -0.659566,1.935823 -1.483127,1.748407 -4.36538,-0.993425 -6.744801,-0.491763 -9.253379,1.950922 -1.372898,1.336836 -1.848968,2.09289 -2.297343,3.648443 -1.297451,4.501269 1.302858,9.18506 5.781701,10.414252 1.180506,0.323983 5.166917,0.411323 16.393148,0.359165 14.80798,-0.0688 14.836037,-0.07025 16.415777,-0.84822 z"
     id="path34"
     inkscape:connector-curvature="0" /><path
     style="fill:#ffffff;stroke-width:0.33333334"
     d="m 58.608609,71.41622 c -0.436975,-1.138738 -0.224804,-4.727364 0.305518,-5.167493 0.879367,-0.729809 1.188163,0.08851 1.084159,2.873063 -0.07894,2.113551 -0.204835,2.651765 -0.639677,2.734745 -0.297765,0.05682 -0.635265,-0.14132 -0.75,-0.440315 z"
     id="path36"
     inkscape:connector-curvature="0" /><path
     style="fill:#ffffff;stroke-width:0.33333334"
     d="m 50.411728,73.949032 c -0.496339,-0.927416 -0.424811,-3.452096 0.118868,-4.195621 0.394173,-0.539064 0.544533,-0.567566 1,-0.189562 0.377352,0.313175 0.536071,1.005233 0.536071,2.337418 0,2.40646 -0.880132,3.495505 -1.654939,2.047765 z"
     id="path38"
     inkscape:connector-curvature="0" /><path
     style="fill:#ffffff;stroke-width:0.33333334"
     d="m 50.268996,65.73319 c -0.2628,-0.684847 -0.2628,-5.593962 0,-6.278809 0.261709,-0.682002 1.333632,-0.682002 1.595341,0 0.2628,0.684847 0.2628,5.593962 0,6.278809 -0.261709,0.682002 -1.333632,0.682002 -1.595341,0 z"
     id="path40"
     inkscape:connector-curvature="0" /><path
     style="fill:#ffffff;stroke-width:0.33333334"
     d="m 41.967079,69.383086 c -0.12856,-0.12856 -0.233746,-1.240378 -0.233746,-2.470708 0,-1.60908 0.144308,-2.356728 0.514128,-2.663651 0.868024,-0.720396 1.190207,0.0836 1.084839,2.707157 -0.07659,1.907125 -0.215669,2.486407 -0.615221,2.562556 -0.28394,0.05412 -0.62144,-0.0068 -0.75,-0.135354 z"
     id="path42"
     inkscape:connector-curvature="0" /></svg>